<svg xmlns="http://www.w3.org/2000/svg" width="389" height="399" viewBox="0 0 389 399">
  <g fill="currentColor" fill-rule="evenodd">
    <path d="M270.399 227.231L272.399 224.231M317.898 71.231L294.898 71.231 294.898 23.731 96.898 23.731 96.898 71.231 73.898 71.231 73.898 22.232C73.898 10.377 83.544.731 95.399.731L296.398.731C308.254.731 317.898 10.377 317.898 22.232L317.898 71.231"/>
    <polygon points="122.398 241.731 210.918 241.731 210.918 218.731 122.398 218.731"/>
    <polygon points="122.398 289.731 264.656 289.731 264.656 266.731 122.398 266.731"/>
    <polygon points="122.398 337.731 264.656 337.731 264.656 314.731 122.398 314.731"/>
    <path d="M339.761,163.659 C324.813,163.659 312.696,151.542 312.696,136.594 C312.696,121.646 324.813,109.528 339.761,109.528 C354.709,109.528 366.826,121.646 366.826,136.594 C366.826,151.542 354.709,163.659 339.761,163.659 Z M96.898,375.79 L294.898,375.79 L294.898,199.04 L96.898,199.04 L96.898,375.79 Z M376.458,92.231 L12.399,92.231 C5.799,92.231 0.399,97.632 0.399,104.231 L0.399,253.261 C0.399,259.861 5.799,265.261 12.399,265.261 L73.399,265.261 C73.567,265.261 73.731,265.242 73.898,265.235 L73.898,377.29 C73.898,389.145 83.544,398.79 95.399,398.79 L296.398,398.79 C308.254,398.79 317.898,389.145 317.898,377.29 L317.898,265.261 L376.399,265.261 C382.999,265.261 388.399,259.861 388.399,253.261 L388.399,188.191 C388.435,187.812 388.458,187.429 388.458,187.04 L388.458,104.231 C388.458,97.632 383.058,92.231 376.458,92.231 L376.458,92.231 Z"/>
  </g>
</svg>
