<svg xmlns="http://www.w3.org/2000/svg" width="285" height="255" viewBox="0 0 285 255">
  <g fill="#C99421" fill-rule="evenodd">
    <path d="M146.494,198.723 C139.017,198.723 132.932,192.64 132.932,185.151 C132.932,184.834 132.953,184.51 132.978,184.199 L132.992,100.411 C132.992,80.203 132.153,66.596 130.514,59.944 C127.979,48.691 123.108,40.167 116.018,34.562 C108.921,28.946 99.467,26.118 87.924,26.118 C74.681,26.118 62.634,30.574 52.14,39.342 C41.595,48.141 34.552,59.211 31.189,72.208 C29.071,80.781 27.998,96.863 27.998,120.004 L27.998,185.158 C27.956,192.618 21.871,198.682 14.433,198.682 C6.949,198.682 0.868,192.59 0.868,185.109 L0.9,5.39 L27.998,5.39 L27.998,33.229 C36.294,23.231 45.435,15.483 55.224,10.132 C66.604,3.955 79.14,0.813 92.504,0.813 C106.14,0.813 118.429,4.336 129.008,11.291 C139.602,18.239 147.529,27.73 152.563,39.49 C157.569,51.109 160.093,69.36 160.093,93.712 L160.093,187.288 L159.896,187.288 C158.862,193.746 153.254,198.723 146.494,198.723"/>
    <path d="M145.249 254.353C127.613 254.353 112.655 250.715 100.793 243.522 88.877 236.303 79.856 226.095 74 213.198 68.18 200.38 65.229 180.999 65.229 155.56L65.215 70.064C65.215 62.599 71.289 56.518 78.77 56.518 86.208 56.518 92.289 62.567 92.318 70.001L92.332 152.966C92.332 172.883 93.418 186.745 95.532 194.183 98.628 204.505 104.652 212.817 113.417 218.817 122.216 224.854 132.908 227.913 145.164 227.913 157.409 227.913 167.929 224.938 176.419 219.057 184.876 213.198 190.784 205.407 193.995 195.875 196.214 189.297 197.337 174.836 197.337 152.966L197.356 69.966C197.544 62.429 203.598 56.527 211.129 56.527 217.959 56.527 223.562 61.371 224.705 67.893L224.916 67.893 224.925 70.022 224.925 157.224C224.925 181.873 221.973 200.789 216.145 213.445 210.287 226.186 201.328 236.303 189.539 243.522 177.768 250.715 162.876 254.353 145.249 254.353M268.008 221.765C277.089 221.765 284.902 228.73 284.902 237.813 284.902 246.893 277.301 254.282 268.008 254.282 259.137 254.282 251.113 247.316 251.113 238.235 251.113 229.154 258.714 221.765 268.008 221.765"/>
  </g>
</svg>
