<?xml version="1.0" encoding="utf-8"?>
<svg xmlns="http://www.w3.org/2000/svg">
<symbol id="icon-print" viewBox="0 0 389 399" preserveAspectRatio="xMinYMid">
  <g fill="currentColor" fill-rule="evenodd">
    <path d="M270.399 227.231L272.399 224.231M317.898 71.231L294.898 71.231 294.898 23.731 96.898 23.731 96.898 71.231 73.898 71.231 73.898 22.232C73.898 10.377 83.544.731 95.399.731L296.398.731C308.254.731 317.898 10.377 317.898 22.232L317.898 71.231"/>
    <polygon points="122.398 241.731 210.918 241.731 210.918 218.731 122.398 218.731"/>
    <polygon points="122.398 289.731 264.656 289.731 264.656 266.731 122.398 266.731"/>
    <polygon points="122.398 337.731 264.656 337.731 264.656 314.731 122.398 314.731"/>
    <path d="M339.761,163.659 C324.813,163.659 312.696,151.542 312.696,136.594 C312.696,121.646 324.813,109.528 339.761,109.528 C354.709,109.528 366.826,121.646 366.826,136.594 C366.826,151.542 354.709,163.659 339.761,163.659 Z M96.898,375.79 L294.898,375.79 L294.898,199.04 L96.898,199.04 L96.898,375.79 Z M376.458,92.231 L12.399,92.231 C5.799,92.231 0.399,97.632 0.399,104.231 L0.399,253.261 C0.399,259.861 5.799,265.261 12.399,265.261 L73.399,265.261 C73.567,265.261 73.731,265.242 73.898,265.235 L73.898,377.29 C73.898,389.145 83.544,398.79 95.399,398.79 L296.398,398.79 C308.254,398.79 317.898,389.145 317.898,377.29 L317.898,265.261 L376.399,265.261 C382.999,265.261 388.399,259.861 388.399,253.261 L388.399,188.191 C388.435,187.812 388.458,187.429 388.458,187.04 L388.458,104.231 C388.458,97.632 383.058,92.231 376.458,92.231 L376.458,92.231 Z"/>
  </g>

</symbol>
<symbol id="logo-emblem" viewBox="0 0 285 255" preserveAspectRatio="xMinYMid">
  <g fill="#C99421" fill-rule="evenodd">
    <path d="M146.494,198.723 C139.017,198.723 132.932,192.64 132.932,185.151 C132.932,184.834 132.953,184.51 132.978,184.199 L132.992,100.411 C132.992,80.203 132.153,66.596 130.514,59.944 C127.979,48.691 123.108,40.167 116.018,34.562 C108.921,28.946 99.467,26.118 87.924,26.118 C74.681,26.118 62.634,30.574 52.14,39.342 C41.595,48.141 34.552,59.211 31.189,72.208 C29.071,80.781 27.998,96.863 27.998,120.004 L27.998,185.158 C27.956,192.618 21.871,198.682 14.433,198.682 C6.949,198.682 0.868,192.59 0.868,185.109 L0.9,5.39 L27.998,5.39 L27.998,33.229 C36.294,23.231 45.435,15.483 55.224,10.132 C66.604,3.955 79.14,0.813 92.504,0.813 C106.14,0.813 118.429,4.336 129.008,11.291 C139.602,18.239 147.529,27.73 152.563,39.49 C157.569,51.109 160.093,69.36 160.093,93.712 L160.093,187.288 L159.896,187.288 C158.862,193.746 153.254,198.723 146.494,198.723"/>
    <path d="M145.249 254.353C127.613 254.353 112.655 250.715 100.793 243.522 88.877 236.303 79.856 226.095 74 213.198 68.18 200.38 65.229 180.999 65.229 155.56L65.215 70.064C65.215 62.599 71.289 56.518 78.77 56.518 86.208 56.518 92.289 62.567 92.318 70.001L92.332 152.966C92.332 172.883 93.418 186.745 95.532 194.183 98.628 204.505 104.652 212.817 113.417 218.817 122.216 224.854 132.908 227.913 145.164 227.913 157.409 227.913 167.929 224.938 176.419 219.057 184.876 213.198 190.784 205.407 193.995 195.875 196.214 189.297 197.337 174.836 197.337 152.966L197.356 69.966C197.544 62.429 203.598 56.527 211.129 56.527 217.959 56.527 223.562 61.371 224.705 67.893L224.916 67.893 224.925 70.022 224.925 157.224C224.925 181.873 221.973 200.789 216.145 213.445 210.287 226.186 201.328 236.303 189.539 243.522 177.768 250.715 162.876 254.353 145.249 254.353M268.008 221.765C277.089 221.765 284.902 228.73 284.902 237.813 284.902 246.893 277.301 254.282 268.008 254.282 259.137 254.282 251.113 247.316 251.113 238.235 251.113 229.154 258.714 221.765 268.008 221.765"/>
  </g>

</symbol>
<symbol id="logo-full" viewBox="0 0 1342 154" preserveAspectRatio="xMinYMid">
    <path fill="#C99421" d="M.583 50.084L24.653 50.084 24.653 66.344 25.076 66.344C29.723 56.205 39.227 47.547 56.123 47.547 83.364 47.547 93.079 66.767 93.079 87.466L93.079 151.465 67.74 151.465 67.74 100.13C67.74 88.947 66.893 70.363 49.154 70.363 32.469 70.363 25.922 82.602 25.922 96.125L25.922 151.465.583 151.465.583 50.084M213.101 151.465L189.027 151.465 189.027 135.193 188.604 135.193C183.958 145.331 174.457 153.99 157.56 153.99 130.317 153.99 120.601 134.769 120.601 114.069L120.601 50.084 145.944 50.084 145.944 101.399C145.944 112.596 146.79 131.188 164.53 131.188 181.215 131.188 187.762 118.934 187.762 105.418L187.762 50.084 213.101 50.084 213.101 151.465M262.934 120.202C272.016 120.202 279.831 127.169 279.831 136.249 279.831 145.331 272.228 152.72 262.934 152.72 254.065 152.72 246.041 145.754 246.041 136.673 246.041 127.592 253.642 120.202 262.934 120.202"/>
    <path fill="#424242" d="M312.768 50.084L336.847 50.084 336.847 66.344 337.268 66.344C341.916 56.205 351.42 47.547 368.312 47.547 395.557 47.547 405.272 66.767 405.272 87.466L405.272 151.465 379.929 151.465 379.929 100.13C379.929 88.947 379.082 70.363 361.347 70.363 344.662 70.363 338.115 82.602 338.115 96.125L338.115 151.465 312.768 151.465 312.768 50.084M482.848 131.188C501.43 131.188 512.622 116.607 512.622 100.764 512.622 84.929 501.43 70.363 482.848 70.363 464.261 70.363 453.067 84.929 453.067 100.764 453.067 116.607 464.261 131.188 482.848 131.188zM482.848 47.547C513.468 47.547 537.963 68.881 537.963 100.764 537.963 132.668 513.468 153.99 482.848 153.99 452.222 153.99 427.724 132.668 427.724 100.764 427.724 68.881 452.222 47.547 482.848 47.547L482.848 47.547zM550.73 71.617L550.73 50.084 571.638 50.084 571.638 20.727 596.98 20.727 596.98 50.084 624.855 50.084 624.855 71.617 596.98 71.617 596.98 115.972C596.98 126.112 599.942 132.457 611.138 132.457 615.567 132.457 621.687 131.611 624.855 129.283L624.855 150.619C619.577 153.143 610.716 153.99 604.793 153.99 577.971 153.99 571.638 141.947 571.638 118.088L571.638 71.617 550.73 71.617M716.956 106.053L711.668 106.053C697.735 106.053 673.668 107.096 673.668 121.683 673.668 130.976 683.173 134.981 691.403 134.981 708.721 134.981 716.956 125.9 716.956 111.749L716.956 106.053zM718.423 137.519L717.788 137.519C710.624 148.926 698.793 153.99 685.268 153.99 666.489 153.99 648.316 143.639 648.316 123.587 648.316 90.64 686.75 88.313 712.091 88.313L718.423 88.313 718.423 85.564C718.423 73.098 708.721 66.555 695.197 66.555 684.635 66.555 674.936 70.785 668.181 77.117L654.874 63.82C666.066 52.411 681.898 47.547 697.946 47.547 741.24 47.547 741.24 78.809 741.24 93.163L741.24 151.465 718.423 151.465 718.423 137.519 718.423 137.519zM769.708 50.084L795.049 50.084 795.049 66.132 795.471 66.132C800.958 54.513 812.155 47.547 825.467 47.547 828.621 47.547 831.583 48.181 834.544 49.027L834.544 73.521C830.313 72.463 826.313 71.617 822.294 71.617 798.433 71.617 795.049 91.683 795.049 97.183L795.049 151.465 769.708 151.465 769.708 50.084M859.66 151.465L885.002 151.465 885.002 50.084 859.66 50.084 859.66 151.465zM872.112.448C881.405.448 888.583 7.006 888.583 15.664 888.583 24.322 881.405 30.865 872.112 30.865 862.819 30.865 856.064 23.688 856.064 15.664 856.064 7.64 862.819.448 872.112.448L872.112.448zM976.641 78.174C971.776 71.406 965.449 67.823 956.791 67.823 950.035 67.823 942.012 70.997 942.012 78.597 942.012 96.76 996.71 81.967 996.71 121.472 996.71 145.542 973.68 153.99 952.997 153.99 937.358 153.99 923.847 149.985 913.497 138.366L930.391 122.53C936.934 129.707 943.689 134.981 954.464 134.981 961.867 134.981 971.353 131.399 971.353 123.375 971.353 102.456 916.656 118.934 916.656 80.276 916.656 57.685 936.934 47.547 957.425 47.547 970.93 47.547 985.301 51.777 993.54 62.974L976.641 78.174M1078.85 78.174C1074 71.406 1067.67 67.823 1059.01 67.823 1052.24 67.823 1044.21 70.997 1044.21 78.597 1044.21 96.76 1098.92 81.967 1098.92 121.472 1098.92 145.542 1075.9 153.99 1055.2 153.99 1039.57 153.99 1026.06 149.985 1015.7 138.366L1032.6 122.53C1039.15 129.707 1045.91 134.981 1056.68 134.981 1064.07 134.981 1073.57 131.399 1073.57 123.375 1073.57 102.456 1018.88 118.934 1018.88 80.276 1018.88 57.685 1039.15 47.547 1059.63 47.547 1073.15 47.547 1087.51 51.777 1095.76 62.974L1078.85 78.174M1199.21 90.64C1199 75.848 1189.29 66.555 1173.45 66.555 1158.46 66.555 1149.17 76.06 1147.27 90.64L1199.21 90.64zM1147.27 109.634C1148.96 124.645 1160.37 133.726 1174.51 133.726 1187.19 133.726 1195.42 127.804 1201.75 119.991L1219.92 133.726C1208.08 148.292 1193.09 153.99 1177.05 153.99 1146.42 153.99 1121.93 132.668 1121.93 100.764 1121.93 68.881 1146.42 47.547 1177.05 47.547 1205.35 47.547 1224.57 67.402 1224.57 102.668L1224.57 109.634 1147.27 109.634 1147.27 109.634zM1249.43 50.084L1273.51 50.084 1273.51 66.344 1273.92 66.344C1278.58 56.205 1288.08 47.547 1304.98 47.547 1332.22 47.547 1341.93 66.767 1341.93 87.466L1341.93 151.465 1316.6 151.465 1316.6 100.13C1316.6 88.947 1315.75 70.363 1298.01 70.363 1281.33 70.363 1274.77 82.602 1274.77 96.125L1274.77 151.465 1249.43 151.465 1249.43 50.084"/>

</symbol></svg>